<?xml version="1.0" encoding="UTF-8" standalone="no"?>
<!DOCTYPE svg PUBLIC "-//W3C//DTD SVG 1.1//EN"
 "http://www.w3.org/Graphics/SVG/1.1/DTD/svg11.dtd">
<!-- Generated by graphviz version 2.43.0 (0)
 -->
<!-- Title: summary Pages: 1 -->
<svg width="1182pt" height="116pt"
 viewBox="0.00 0.00 1182.34 116.00" xmlns="http://www.w3.org/2000/svg" xmlns:xlink="http://www.w3.org/1999/xlink">
<g id="graph0" class="graph" transform="scale(1 1) rotate(0) translate(4 112)">
<title>summary</title>
<polygon fill="white" stroke="transparent" points="-4,4 -4,-112 1178.34,-112 1178.34,4 -4,4"/>
<!-- genericdao -->
<g id="node1" class="node">
<title>genericdao</title>
<ellipse fill="none" stroke="black" cx="537.69" cy="-90" rx="49.29" ry="18"/>
<text text-anchor="middle" x="537.69" y="-86.3" font-family="Times,serif" font-size="14.00">genericdao</text>
</g>
<!-- genericmapper -->
<g id="node2" class="node">
<title>genericmapper</title>
<ellipse fill="none" stroke="black" cx="63.69" cy="-18" rx="63.89" ry="18"/>
<text text-anchor="middle" x="63.69" y="-14.3" font-family="Times,serif" font-size="14.00">genericmapper</text>
</g>
<!-- genericdao&#45;&gt;genericmapper -->
<g id="edge1" class="edge">
<title>genericdao&#45;&gt;genericmapper</title>
<path fill="none" stroke="black" d="M490.54,-84.27C415.36,-76.4 263.82,-59.15 136.69,-36 131.25,-35.01 125.61,-33.88 119.97,-32.68"/>
<polygon fill="black" stroke="black" points="120.41,-29.2 109.89,-30.47 118.91,-36.03 120.41,-29.2"/>
</g>
<!-- java.base (java.base) -->
<g id="node3" class="node">
<title>java.base (java.base)</title>
<ellipse fill="none" stroke="black" cx="229.69" cy="-18" rx="84.49" ry="18"/>
<text text-anchor="middle" x="229.69" y="-14.3" font-family="Times,serif" font-size="14.00">java.base (java.base)</text>
</g>
<!-- genericdao&#45;&gt;java.base (java.base) -->
<g id="edge2" class="edge">
<title>genericdao&#45;&gt;java.base (java.base)</title>
<path fill="none" stroke="black" d="M496.79,-79.7C445.25,-67.99 356.05,-47.72 295.02,-33.85"/>
<polygon fill="black" stroke="black" points="295.63,-30.4 285.1,-31.59 294.08,-37.22 295.63,-30.4"/>
</g>
<!-- java.logging (java.logging) -->
<g id="node4" class="node">
<title>java.logging (java.logging)</title>
<ellipse fill="none" stroke="black" cx="438.69" cy="-18" rx="106.68" ry="18"/>
<text text-anchor="middle" x="438.69" y="-14.3" font-family="Times,serif" font-size="14.00">java.logging (java.logging)</text>
</g>
<!-- genericdao&#45;&gt;java.logging (java.logging) -->
<g id="edge3" class="edge">
<title>genericdao&#45;&gt;java.logging (java.logging)</title>
<path fill="none" stroke="black" d="M515.72,-73.46C502.48,-64.1 485.39,-52.02 470.68,-41.61"/>
<polygon fill="black" stroke="black" points="472.52,-38.63 462.33,-35.71 468.48,-44.35 472.52,-38.63"/>
</g>
<!-- java.sql (java.sql) -->
<g id="node5" class="node">
<title>java.sql (java.sql)</title>
<ellipse fill="none" stroke="black" cx="636.69" cy="-18" rx="73.39" ry="18"/>
<text text-anchor="middle" x="636.69" y="-14.3" font-family="Times,serif" font-size="14.00">java.sql (java.sql)</text>
</g>
<!-- genericdao&#45;&gt;java.sql (java.sql) -->
<g id="edge4" class="edge">
<title>genericdao&#45;&gt;java.sql (java.sql)</title>
<path fill="none" stroke="black" d="M559.67,-73.46C573.09,-63.97 590.49,-51.67 605.35,-41.17"/>
<polygon fill="black" stroke="black" points="607.61,-43.85 613.75,-35.22 603.57,-38.14 607.61,-43.85"/>
</g>
<!-- nl.fontys.sebivenlo.sebiannotations -->
<g id="node6" class="node">
<title>nl.fontys.sebivenlo.sebiannotations</title>
<ellipse fill="none" stroke="black" cx="863.69" cy="-18" rx="135.38" ry="18"/>
<text text-anchor="middle" x="863.69" y="-14.3" font-family="Times,serif" font-size="14.00">nl.fontys.sebivenlo.sebiannotations</text>
</g>
<!-- genericdao&#45;&gt;nl.fontys.sebivenlo.sebiannotations -->
<g id="edge5" class="edge">
<title>genericdao&#45;&gt;nl.fontys.sebivenlo.sebiannotations</title>
<path fill="none" stroke="black" d="M579.31,-80.06C631.13,-68.94 720.69,-49.71 785.48,-35.79"/>
<polygon fill="black" stroke="black" points="786.62,-39.13 795.66,-33.61 785.15,-32.29 786.62,-39.13"/>
</g>
<!-- org.postgresql.jdbc -->
<g id="node7" class="node">
<title>org.postgresql.jdbc</title>
<ellipse fill="none" stroke="black" cx="1095.69" cy="-18" rx="78.79" ry="18"/>
<text text-anchor="middle" x="1095.69" y="-14.3" font-family="Times,serif" font-size="14.00">org.postgresql.jdbc</text>
</g>
<!-- genericdao&#45;&gt;org.postgresql.jdbc -->
<g id="edge6" class="edge">
<title>genericdao&#45;&gt;org.postgresql.jdbc</title>
<path fill="none" stroke="black" d="M585.22,-84.88C670.24,-77.25 853.87,-59.49 1007.69,-36 1014.52,-34.96 1021.61,-33.77 1028.69,-32.51"/>
<polygon fill="black" stroke="black" points="1029.79,-35.87 1039,-30.63 1028.54,-28.98 1029.79,-35.87"/>
</g>
</g>
</svg>
